<mxfile host="app.diagrams.net" modified="2024-03-08T14:00:09.402Z" agent="Mozilla/5.0 (Windows NT 10.0; Win64; x64; rv:123.0) Gecko/20100101 Firefox/123.0" etag="RMiFrQRsviN8cu8nbl_8" version="24.0.2" type="device">
  <diagram name="Página-1" id="U3OIAgnuxi68kpDHtIOe">
    <mxGraphModel dx="1194" dy="716" grid="1" gridSize="10" guides="1" tooltips="1" connect="1" arrows="1" fold="1" page="1" pageScale="1" pageWidth="827" pageHeight="1169" math="0" shadow="0">
      <root>
        <mxCell id="0" />
        <mxCell id="1" parent="0" />
        <mxCell id="5OOcIgKqImi4ONqkO4Bu-8" value="" style="rounded=1;whiteSpace=wrap;html=1;strokeWidth=4;fillColor=#d5e8d4;strokeColor=#82b366;" vertex="1" parent="1">
          <mxGeometry x="510" y="240" width="270" height="150" as="geometry" />
        </mxCell>
        <mxCell id="5OOcIgKqImi4ONqkO4Bu-1" value="" style="rounded=1;whiteSpace=wrap;html=1;strokeWidth=4;fillColor=#dae8fc;strokeColor=#6c8ebf;" vertex="1" parent="1">
          <mxGeometry x="120" y="290" width="230" height="60" as="geometry" />
        </mxCell>
        <mxCell id="5OOcIgKqImi4ONqkO4Bu-4" value="PACOTE ORIGINAL" style="text;html=1;strokeColor=none;fillColor=none;align=center;verticalAlign=middle;whiteSpace=wrap;rounded=0;fontSize=16;fontStyle=1" vertex="1" parent="1">
          <mxGeometry x="150" y="305" width="170" height="30" as="geometry" />
        </mxCell>
        <mxCell id="5OOcIgKqImi4ONqkO4Bu-5" value="" style="html=1;shadow=0;dashed=0;align=center;verticalAlign=middle;shape=mxgraph.arrows2.jumpInArrow;dy=15;dx=38;arrowHead=55;rotation=45;strokeWidth=4;fillColor=#dae8fc;strokeColor=#6c8ebf;" vertex="1" parent="1">
          <mxGeometry x="380" y="220" width="100" height="100" as="geometry" />
        </mxCell>
        <mxCell id="5OOcIgKqImi4ONqkO4Bu-6" value="" style="rounded=1;whiteSpace=wrap;html=1;strokeWidth=4;fillColor=#dae8fc;strokeColor=#6c8ebf;" vertex="1" parent="1">
          <mxGeometry x="530" y="310" width="230" height="60" as="geometry" />
        </mxCell>
        <mxCell id="5OOcIgKqImi4ONqkO4Bu-7" value="PACOTE ORIGINAL NÃO SUPORTADO" style="text;html=1;strokeColor=none;fillColor=none;align=center;verticalAlign=middle;whiteSpace=wrap;rounded=0;fontSize=16;fontStyle=1" vertex="1" parent="1">
          <mxGeometry x="560" y="325" width="170" height="30" as="geometry" />
        </mxCell>
        <mxCell id="5OOcIgKqImi4ONqkO4Bu-9" value="PACOTE ENCAPSULADO" style="text;html=1;strokeColor=none;fillColor=none;align=center;verticalAlign=middle;whiteSpace=wrap;rounded=0;fontSize=16;fontStyle=1" vertex="1" parent="1">
          <mxGeometry x="540" y="180" width="210" height="30" as="geometry" />
        </mxCell>
        <mxCell id="5OOcIgKqImi4ONqkO4Bu-10" value="PACOTE SUPORTADO" style="text;html=1;strokeColor=none;fillColor=none;align=center;verticalAlign=middle;whiteSpace=wrap;rounded=0;fontSize=16;fontStyle=1" vertex="1" parent="1">
          <mxGeometry x="540" y="255" width="210" height="30" as="geometry" />
        </mxCell>
      </root>
    </mxGraphModel>
  </diagram>
</mxfile>
